<svg xmlns="http://www.w3.org/2000/svg" width="1366" height="40.2" viewBox="0 0 1366 40.2">
  <g id="guarda_desktop" transform="translate(0 0)">
    <g id="Grupo_1" data-name="Grupo 1" transform="translate(0 0.1)">
      <rect id="Rectángulo_4" data-name="Rectángulo 4" width="20.1" height="20.1" transform="translate(0 -0.1)" fill="#1d54b9"/>
    </g>
    <g id="Grupo_2" data-name="Grupo 2" transform="translate(0 0.1)">
      <rect id="Rectángulo_5" data-name="Rectángulo 5" width="20.1" height="20.1" transform="translate(20.1 20)" fill="#1d54b9"/>
    </g>
    <g id="Grupo_3" data-name="Grupo 3" transform="translate(0 0.1)">
      <rect id="Rectángulo_6" data-name="Rectángulo 6" width="20.1" height="20.1" transform="translate(40.2 -0.1)" fill="#1d54b9"/>
    </g>
    <g id="Grupo_4" data-name="Grupo 4" transform="translate(0 0.1)">
      <rect id="Rectángulo_7" data-name="Rectángulo 7" width="20.1" height="20.1" transform="translate(60.3 20)" fill="#1d54b9"/>
    </g>
    <g id="Grupo_5" data-name="Grupo 5" transform="translate(0 0.1)">
      <rect id="Rectángulo_8" data-name="Rectángulo 8" width="20.1" height="20.1" transform="translate(80.4 -0.1)" fill="#1d54b9"/>
    </g>
    <g id="Grupo_6" data-name="Grupo 6" transform="translate(0 0.1)">
      <rect id="Rectángulo_9" data-name="Rectángulo 9" width="20.1" height="20.1" transform="translate(100.4 20)" fill="#1d54b9"/>
    </g>
    <g id="Grupo_7" data-name="Grupo 7" transform="translate(0 0.1)">
      <rect id="Rectángulo_10" data-name="Rectángulo 10" width="20.1" height="20.1" transform="translate(120.5 -0.1)" fill="#1d54b9"/>
    </g>
    <g id="Grupo_8" data-name="Grupo 8" transform="translate(0 0.1)">
      <rect id="Rectángulo_11" data-name="Rectángulo 11" width="20.1" height="20.1" transform="translate(140.6 20)" fill="#1d54b9"/>
    </g>
    <g id="Grupo_9" data-name="Grupo 9" transform="translate(0 0.1)">
      <rect id="Rectángulo_12" data-name="Rectángulo 12" width="20.1" height="20.1" transform="translate(160.7 -0.1)" fill="#1d54b9"/>
    </g>
    <g id="Grupo_10" data-name="Grupo 10" transform="translate(0 0.1)">
      <rect id="Rectángulo_13" data-name="Rectángulo 13" width="20.1" height="20.1" transform="translate(180.8 20)" fill="#1d54b9"/>
    </g>
    <g id="Grupo_11" data-name="Grupo 11" transform="translate(0 0.1)">
      <rect id="Rectángulo_14" data-name="Rectángulo 14" width="20.1" height="20.1" transform="translate(200.9 -0.1)" fill="#1d54b9"/>
    </g>
    <g id="Grupo_12" data-name="Grupo 12" transform="translate(0 0.1)">
      <rect id="Rectángulo_15" data-name="Rectángulo 15" width="20.1" height="20.1" transform="translate(221 20)" fill="#1d54b9"/>
    </g>
    <g id="Grupo_13" data-name="Grupo 13" transform="translate(0 0.1)">
      <rect id="Rectángulo_16" data-name="Rectángulo 16" width="20.1" height="20.1" transform="translate(241.1 -0.1)" fill="#1d54b9"/>
    </g>
    <g id="Grupo_14" data-name="Grupo 14" transform="translate(0 0.1)">
      <rect id="Rectángulo_17" data-name="Rectángulo 17" width="20.1" height="20.1" transform="translate(261.1 20)" fill="#1d54b9"/>
    </g>
    <g id="Grupo_15" data-name="Grupo 15" transform="translate(0 0.1)">
      <rect id="Rectángulo_18" data-name="Rectángulo 18" width="20.1" height="20.1" transform="translate(281.2 -0.1)" fill="#1d54b9"/>
    </g>
    <g id="Grupo_16" data-name="Grupo 16" transform="translate(0 0.1)">
      <rect id="Rectángulo_19" data-name="Rectángulo 19" width="20.1" height="20.1" transform="translate(301.3 20)" fill="#1d54b9"/>
    </g>
    <g id="Grupo_17" data-name="Grupo 17" transform="translate(0 0.1)">
      <rect id="Rectángulo_20" data-name="Rectángulo 20" width="20.1" height="20.1" transform="translate(321.4 -0.1)" fill="#1d54b9"/>
    </g>
    <g id="Grupo_18" data-name="Grupo 18" transform="translate(0 0.1)">
      <rect id="Rectángulo_21" data-name="Rectángulo 21" width="20.1" height="20.1" transform="translate(341.5 20)" fill="#1d54b9"/>
    </g>
    <g id="Grupo_19" data-name="Grupo 19" transform="translate(0 0.1)">
      <rect id="Rectángulo_22" data-name="Rectángulo 22" width="20.1" height="20.1" transform="translate(361.6 -0.1)" fill="#1d54b9"/>
    </g>
    <g id="Grupo_20" data-name="Grupo 20" transform="translate(0 0.1)">
      <rect id="Rectángulo_23" data-name="Rectángulo 23" width="20.1" height="20.1" transform="translate(381.7 20)" fill="#1d54b9"/>
    </g>
    <g id="Grupo_21" data-name="Grupo 21" transform="translate(0 0.1)">
      <rect id="Rectángulo_24" data-name="Rectángulo 24" width="20.1" height="20.1" transform="translate(401.8 -0.1)" fill="#1d54b9"/>
    </g>
    <g id="Grupo_22" data-name="Grupo 22" transform="translate(0 0.1)">
      <rect id="Rectángulo_25" data-name="Rectángulo 25" width="20.1" height="20.1" transform="translate(421.9 20)" fill="#1d54b9"/>
    </g>
    <g id="Grupo_23" data-name="Grupo 23" transform="translate(0 0.1)">
      <rect id="Rectángulo_26" data-name="Rectángulo 26" width="20.1" height="20.1" transform="translate(441.9 -0.1)" fill="#1d54b9"/>
    </g>
    <g id="Grupo_24" data-name="Grupo 24" transform="translate(0 0.1)">
      <rect id="Rectángulo_27" data-name="Rectángulo 27" width="20.1" height="20.1" transform="translate(462 20)" fill="#1d54b9"/>
    </g>
    <g id="Grupo_25" data-name="Grupo 25" transform="translate(0 0.1)">
      <rect id="Rectángulo_28" data-name="Rectángulo 28" width="20.1" height="20.1" transform="translate(482.1 -0.1)" fill="#1d54b9"/>
    </g>
    <g id="Grupo_26" data-name="Grupo 26" transform="translate(0 0.1)">
      <rect id="Rectángulo_29" data-name="Rectángulo 29" width="20.1" height="20.1" transform="translate(502.2 20)" fill="#1d54b9"/>
    </g>
    <g id="Grupo_27" data-name="Grupo 27" transform="translate(0 0.1)">
      <rect id="Rectángulo_30" data-name="Rectángulo 30" width="20.1" height="20.1" transform="translate(522.3 -0.1)" fill="#1d54b9"/>
    </g>
    <g id="Grupo_28" data-name="Grupo 28" transform="translate(0 0.1)">
      <rect id="Rectángulo_31" data-name="Rectángulo 31" width="20.1" height="20.1" transform="translate(542.4 20)" fill="#1d54b9"/>
    </g>
    <g id="Grupo_29" data-name="Grupo 29" transform="translate(0 0.1)">
      <rect id="Rectángulo_32" data-name="Rectángulo 32" width="20.1" height="20.1" transform="translate(562.5 -0.1)" fill="#1d54b9"/>
    </g>
    <g id="Grupo_30" data-name="Grupo 30" transform="translate(0 0.1)">
      <rect id="Rectángulo_33" data-name="Rectángulo 33" width="20.1" height="20.1" transform="translate(582.6 20)" fill="#1d54b9"/>
    </g>
    <g id="Grupo_31" data-name="Grupo 31" transform="translate(0 0.1)">
      <rect id="Rectángulo_34" data-name="Rectángulo 34" width="20.1" height="20.1" transform="translate(602.6 -0.1)" fill="#1d54b9"/>
    </g>
    <g id="Grupo_32" data-name="Grupo 32" transform="translate(0 0.1)">
      <rect id="Rectángulo_35" data-name="Rectángulo 35" width="20.1" height="20.1" transform="translate(622.7 20)" fill="#1d54b9"/>
    </g>
    <g id="Grupo_33" data-name="Grupo 33" transform="translate(0 0.1)">
      <rect id="Rectángulo_36" data-name="Rectángulo 36" width="20.1" height="20.1" transform="translate(642.8 -0.1)" fill="#1d54b9"/>
    </g>
    <g id="Grupo_34" data-name="Grupo 34" transform="translate(0 0.1)">
      <rect id="Rectángulo_37" data-name="Rectángulo 37" width="20.1" height="20.1" transform="translate(662.9 20)" fill="#1d54b9"/>
    </g>
    <g id="Grupo_35" data-name="Grupo 35" transform="translate(0 0.1)">
      <rect id="Rectángulo_38" data-name="Rectángulo 38" width="20.1" height="20.1" transform="translate(683 -0.1)" fill="#1d54b9"/>
    </g>
    <g id="Grupo_36" data-name="Grupo 36" transform="translate(0 0.1)">
      <rect id="Rectángulo_39" data-name="Rectángulo 39" width="20.1" height="20.1" transform="translate(703.1 20)" fill="#1d54b9"/>
    </g>
    <g id="Grupo_37" data-name="Grupo 37" transform="translate(0 0.1)">
      <rect id="Rectángulo_40" data-name="Rectángulo 40" width="20.1" height="20.1" transform="translate(723.2 -0.1)" fill="#1d54b9"/>
    </g>
    <g id="Grupo_38" data-name="Grupo 38" transform="translate(0 0.1)">
      <rect id="Rectángulo_41" data-name="Rectángulo 41" width="20.1" height="20.1" transform="translate(743.3 20)" fill="#1d54b9"/>
    </g>
    <g id="Grupo_39" data-name="Grupo 39" transform="translate(0 0.1)">
      <rect id="Rectángulo_42" data-name="Rectángulo 42" width="20.1" height="20.1" transform="translate(763.4 -0.1)" fill="#1d54b9"/>
    </g>
    <g id="Grupo_40" data-name="Grupo 40" transform="translate(0 0.1)">
      <rect id="Rectángulo_43" data-name="Rectángulo 43" width="20.1" height="20.1" transform="translate(783.4 20)" fill="#1d54b9"/>
    </g>
    <g id="Grupo_41" data-name="Grupo 41" transform="translate(0 0.1)">
      <rect id="Rectángulo_44" data-name="Rectángulo 44" width="20.1" height="20.1" transform="translate(803.5 -0.1)" fill="#1d54b9"/>
    </g>
    <g id="Grupo_42" data-name="Grupo 42" transform="translate(0 0.1)">
      <rect id="Rectángulo_45" data-name="Rectángulo 45" width="20.1" height="20.1" transform="translate(823.6 20)" fill="#1d54b9"/>
    </g>
    <g id="Grupo_43" data-name="Grupo 43" transform="translate(0 0.1)">
      <rect id="Rectángulo_46" data-name="Rectángulo 46" width="20.1" height="20.1" transform="translate(843.7 -0.1)" fill="#1d54b9"/>
    </g>
    <g id="Grupo_44" data-name="Grupo 44" transform="translate(0 0.1)">
      <rect id="Rectángulo_47" data-name="Rectángulo 47" width="20.1" height="20.1" transform="translate(863.8 20)" fill="#1d54b9"/>
    </g>
    <g id="Grupo_45" data-name="Grupo 45" transform="translate(0 0.1)">
      <rect id="Rectángulo_48" data-name="Rectángulo 48" width="20.1" height="20.1" transform="translate(883.9 -0.1)" fill="#1d54b9"/>
    </g>
    <g id="Grupo_46" data-name="Grupo 46" transform="translate(0 0.1)">
      <rect id="Rectángulo_49" data-name="Rectángulo 49" width="20.1" height="20.1" transform="translate(904 20)" fill="#1d54b9"/>
    </g>
    <g id="Grupo_47" data-name="Grupo 47" transform="translate(0 0.1)">
      <rect id="Rectángulo_50" data-name="Rectángulo 50" width="20.1" height="20.1" transform="translate(924.1 -0.1)" fill="#1d54b9"/>
    </g>
    <g id="Grupo_48" data-name="Grupo 48" transform="translate(0 0.1)">
      <rect id="Rectángulo_51" data-name="Rectángulo 51" width="20.1" height="20.1" transform="translate(944.1 20)" fill="#1d54b9"/>
    </g>
    <g id="Grupo_49" data-name="Grupo 49" transform="translate(0 0.1)">
      <rect id="Rectángulo_52" data-name="Rectángulo 52" width="20.1" height="20.1" transform="translate(964.2 -0.1)" fill="#1d54b9"/>
    </g>
    <g id="Grupo_50" data-name="Grupo 50" transform="translate(0 0.1)">
      <rect id="Rectángulo_53" data-name="Rectángulo 53" width="20.1" height="20.1" transform="translate(984.3 20)" fill="#1d54b9"/>
    </g>
    <g id="Grupo_51" data-name="Grupo 51" transform="translate(0 0.1)">
      <rect id="Rectángulo_54" data-name="Rectángulo 54" width="20.1" height="20.1" transform="translate(1004.4 -0.1)" fill="#1d54b9"/>
    </g>
    <g id="Grupo_52" data-name="Grupo 52" transform="translate(0 0.1)">
      <rect id="Rectángulo_55" data-name="Rectángulo 55" width="20.1" height="20.1" transform="translate(1024.5 20)" fill="#1d54b9"/>
    </g>
    <g id="Grupo_53" data-name="Grupo 53" transform="translate(0 0.1)">
      <rect id="Rectángulo_56" data-name="Rectángulo 56" width="20.1" height="20.1" transform="translate(1044.6 -0.1)" fill="#1d54b9"/>
    </g>
    <g id="Grupo_54" data-name="Grupo 54" transform="translate(0 0.1)">
      <rect id="Rectángulo_57" data-name="Rectángulo 57" width="20.1" height="20.1" transform="translate(1064.7 20)" fill="#1d54b9"/>
    </g>
    <g id="Grupo_55" data-name="Grupo 55" transform="translate(0 0.1)">
      <rect id="Rectángulo_58" data-name="Rectángulo 58" width="20.1" height="20.1" transform="translate(1084.8 -0.1)" fill="#1d54b9"/>
    </g>
    <g id="Grupo_56" data-name="Grupo 56" transform="translate(0 0.1)">
      <rect id="Rectángulo_59" data-name="Rectángulo 59" width="20.1" height="20.1" transform="translate(1104.9 20)" fill="#1d54b9"/>
    </g>
    <g id="Grupo_57" data-name="Grupo 57" transform="translate(0 0.1)">
      <rect id="Rectángulo_60" data-name="Rectángulo 60" width="20.1" height="20.1" transform="translate(1124.9 -0.1)" fill="#1d54b9"/>
    </g>
    <g id="Grupo_58" data-name="Grupo 58" transform="translate(0 0.1)">
      <rect id="Rectángulo_61" data-name="Rectángulo 61" width="20.1" height="20.1" transform="translate(1145 20)" fill="#1d54b9"/>
    </g>
    <g id="Grupo_59" data-name="Grupo 59" transform="translate(0 0.1)">
      <rect id="Rectángulo_62" data-name="Rectángulo 62" width="20.1" height="20.1" transform="translate(1165.1 -0.1)" fill="#1d54b9"/>
    </g>
    <g id="Grupo_60" data-name="Grupo 60" transform="translate(0 0.1)">
      <rect id="Rectángulo_63" data-name="Rectángulo 63" width="20.1" height="20.1" transform="translate(1185.2 20)" fill="#1d54b9"/>
    </g>
    <g id="Grupo_61" data-name="Grupo 61" transform="translate(0 0.1)">
      <rect id="Rectángulo_64" data-name="Rectángulo 64" width="20.1" height="20.1" transform="translate(1205.3 -0.1)" fill="#1d54b9"/>
    </g>
    <g id="Grupo_62" data-name="Grupo 62" transform="translate(0 0.1)">
      <rect id="Rectángulo_65" data-name="Rectángulo 65" width="20.1" height="20.1" transform="translate(1225.4 20)" fill="#1d54b9"/>
    </g>
    <g id="Grupo_63" data-name="Grupo 63" transform="translate(0 0.1)">
      <rect id="Rectángulo_66" data-name="Rectángulo 66" width="20.1" height="20.1" transform="translate(1245.5 -0.1)" fill="#1d54b9"/>
    </g>
    <g id="Grupo_64" data-name="Grupo 64" transform="translate(0 0.1)">
      <rect id="Rectángulo_67" data-name="Rectángulo 67" width="20.1" height="20.1" transform="translate(1265.6 20)" fill="#1d54b9"/>
    </g>
    <g id="Grupo_65" data-name="Grupo 65" transform="translate(0 0.1)">
      <rect id="Rectángulo_68" data-name="Rectángulo 68" width="20.1" height="20.1" transform="translate(1285.6 -0.1)" fill="#1d54b9"/>
    </g>
    <g id="Grupo_66" data-name="Grupo 66" transform="translate(0 0.1)">
      <rect id="Rectángulo_69" data-name="Rectángulo 69" width="20.1" height="20.1" transform="translate(1305.7 20)" fill="#1d54b9"/>
    </g>
    <g id="Grupo_67" data-name="Grupo 67" transform="translate(0 0.1)">
      <rect id="Rectángulo_70" data-name="Rectángulo 70" width="20.1" height="20.1" transform="translate(1325.8 -0.1)" fill="#1d54b9"/>
    </g>
    <g id="Grupo_68" data-name="Grupo 68" transform="translate(0 0.1)">
      <rect id="Rectángulo_71" data-name="Rectángulo 71" width="20.1" height="20.1" transform="translate(1345.9 20)" fill="#1d54b9"/>
    </g>
  </g>
</svg>
